<?xml version="1.0" encoding="iso-8859-1"?>
<!-- Generator: Adobe Illustrator 16.0.0, SVG Export Plug-In . SVG Version: 6.00 Build 0)  -->
<!DOCTYPE svg PUBLIC "-//W3C//DTD SVG 1.1//EN" "http://www.w3.org/Graphics/SVG/1.1/DTD/svg11.dtd">
<svg version="1.1" id="Capa_1" xmlns="http://www.w3.org/2000/svg" xmlns:xlink="http://www.w3.org/1999/xlink" x="0px" y="0px"
	 width="362.245px" height="362.245px" viewBox="0 0 362.245 362.245" style="enable-background:new 0 0 362.245 362.245;"
	 xml:space="preserve">
<g>
	<g>
		<path d="M313.816,128.421v-13.099l48.429-2.249V88.771l-48.429-2.243V76.444H275.95V31.993c0-10.073-8.196-18.281-18.261-18.281
			H104.55c-10.07,0-18.267,8.202-18.267,18.281v44.451h-37.86v10.085L0,88.771v24.302l48.423,2.249v13.099h37.86v28.241h-37.86
			v10.061L0,168.978v24.289l48.423,2.258v13.097h37.86v31.267h-37.86v10.089L0,252.228v24.29l48.423,2.245v13.104h37.86v38.406
			c0,10.082,8.196,18.261,18.267,18.261h153.14c10.064,0,18.261-8.179,18.261-18.261v-38.406h37.866v-13.104l48.429-2.245v-24.29
			l-48.429-2.251v-10.089H275.95v-31.267h37.866v-13.097l48.429-2.258v-24.289l-48.429-2.255v-10.061H275.95v-28.241H313.816z
			 M277.464,86.036h26.751v9.647l48.435,2.258v5.962l-48.435,2.258v12.655h-26.751V86.036z M84.788,118.816H58.021v-12.649
			L9.593,103.91v-5.962l48.429-2.258v-9.647h26.76v32.774H84.788z M84.788,199.02H58.021v-12.64l-48.429-2.258v-5.975l48.429-2.258
			v-9.647h26.76v32.777H84.788z M84.788,282.246H58.021v-12.658l-48.429-2.252v-5.963l48.429-2.251v-9.639h26.76v32.763H84.788z
			 M119.862,61.324c-6.536,0-11.862-5.32-11.862-11.863c0-6.548,5.32-11.854,11.862-11.854c6.542,0,11.854,5.306,11.854,11.854
			C131.715,56.003,126.398,61.324,119.862,61.324z M277.464,249.483h26.751v9.639l48.435,2.251v5.963l-48.435,2.252v12.658h-26.751
			V249.483z M277.464,166.249h26.751v9.647l48.435,2.257v5.978l-48.435,2.255v12.646h-26.751V166.249z"/>
	</g>
</g>
<g>
</g>
<g>
</g>
<g>
</g>
<g>
</g>
<g>
</g>
<g>
</g>
<g>
</g>
<g>
</g>
<g>
</g>
<g>
</g>
<g>
</g>
<g>
</g>
<g>
</g>
<g>
</g>
<g>
</g>
</svg>
